<svg width="210" height="66" viewBox="0 0 210 66" fill="none" xmlns="http://www.w3.org/2000/svg">
<g clip-path="url(#clip0_350_1627)">
<path d="M14.0178 40.9858C6.21202 33.7009 5.5967 20.4784 12.6722 12.0771C18.6289 5.0047 27.9365 2.48475 36.643 5.59284C36.9852 5.71516 37.3089 5.88938 37.6407 6.03888C38.1065 6.33912 37.9823 6.66099 37.7321 7.0539C36.3236 9.26496 34.8384 11.4254 33.3977 13.6154C33.0641 14.1226 32.6582 14.5297 31.9873 14.5186C30.412 14.3759 28.8514 14.1924 27.2613 14.5069C19.0799 16.1261 15.1934 25.0185 19.6013 32.0872C19.7959 32.3992 20.0158 32.6995 20.0696 33.0776C19.1454 34.7277 18 36.2326 16.9306 37.7876C16.3728 38.5987 15.7766 39.3845 15.2206 40.1988C14.9296 40.6251 14.638 41.0587 14.0178 40.9858Z" fill="#EA5B6A"/>
<path d="M40.1335 44.7148C39.5985 44.4893 39.2661 44.9415 38.8726 45.1256C36.5095 46.2315 34.0754 47.0605 31.443 47.1903C30.357 47.1316 29.2709 47.2335 28.1848 47.1841C27.858 47.1693 27.4361 47.2026 27.2705 46.9289C27.0827 46.6194 27.433 46.3377 27.5881 46.0541C28.3788 44.6098 29.2975 43.2228 30.3527 41.9916C31.7797 40.326 32.6829 38.3392 34.0087 36.6273C34.267 36.2375 34.6994 36.0911 35.0738 35.8638C37.915 34.137 39.7931 31.7091 40.5437 28.4361C40.6419 28.008 40.535 27.4347 41.1293 27.2308C41.2331 27.2901 41.2628 27.3927 41.2869 27.4995C41.2992 27.4229 41.2838 27.3439 41.2578 27.2778C41.0503 26.7483 41.2825 26.3517 41.6433 26.0014C42.7251 24.9512 43.6604 23.7428 44.3319 22.4355C45.0115 21.1129 45.9283 19.9613 46.6412 18.6714C47.0249 17.9764 47.7316 17.4994 47.9553 16.6376C48.0825 16.1465 48.5477 16.4554 48.8535 16.6617C50.002 18.2605 50.39 20.1034 50.5703 22.0124C50.5907 22.2255 50.5215 22.4528 50.6729 22.6444C50.786 27.2957 50.9812 31.9464 50.8551 36.6002C50.8471 36.8868 50.7736 37.1716 50.731 37.457C50.3004 37.1481 50.3795 36.6792 50.3813 36.2542C50.3893 34.3193 50.2985 32.3819 50.4826 30.4495C50.4863 30.413 50.4919 30.3772 50.4962 30.3407C50.4925 30.3444 50.4888 30.3475 50.4832 30.3587C50.3232 32.4369 49.4423 34.2736 48.5162 36.067C46.6468 39.686 43.8544 42.4728 40.4491 44.6678C40.354 44.7302 40.2447 44.7407 40.1335 44.7148Z" fill="#F49878"/>
<path d="M40.1335 44.7148C40.923 43.727 42.0789 43.1951 43.0259 42.3981C46.8086 39.2153 49.2075 35.2244 50.2806 30.4143C50.3029 30.3148 50.3937 30.2302 50.4517 30.1387C50.7242 31.5146 50.5061 32.9046 50.5673 34.2872C50.634 35.7828 50.461 37.2841 50.6605 38.7779C50.6278 42.5649 49.926 46.2024 48.2333 49.6176C45.5181 48.5315 42.5984 48.2374 39.8104 47.4355C39.5682 47.3657 39.2957 47.3707 39.0962 47.1785C39.4428 46.3569 39.7881 45.5358 40.1335 44.7148Z" fill="#EA5B6A"/>
<path d="M41.1627 57.8026C37.7111 60.3151 33.7999 61.6051 29.5946 61.9887C26.8374 62.2402 24.0803 62.0931 21.3879 61.3388C21.1816 61.2807 20.9833 61.1936 20.5064 61.0194C25.1515 59.9655 29.038 57.936 32.5619 55.1813C33.6201 54.9985 34.6036 55.392 35.5686 55.6793C37.1829 56.1599 38.8312 56.4929 40.4479 56.9519C40.8853 57.0755 41.353 57.1583 41.1627 57.8026Z" fill="#F49878"/>
<path d="M17.9846 52.0393C21.8606 53.5145 25.8447 54.1546 29.9801 53.5071C30.0617 53.9841 29.7058 54.0675 29.5001 54.2164C25.6482 57.0007 21.2873 58.4006 16.6088 58.9418C16.0873 59.0023 15.6753 58.8386 15.2811 58.5464C14.5163 57.9793 13.6823 57.4993 13.0515 56.7641C12.9434 56.5522 13.0701 56.4163 13.2171 56.3051C14.8962 55.0368 16.3518 53.5318 17.79 52.0071C17.8363 51.959 17.9185 51.9868 17.9846 52.0393Z" fill="#EA5B6A"/>
<path d="M50.6735 22.645C50.3807 21.5601 50.0977 20.4722 49.7926 19.3911C49.5251 18.4428 49.1464 17.5371 48.6824 16.6679C48.169 16.0995 47.8243 15.4156 47.3962 14.7892C47.0502 13.962 46.4337 13.317 45.9172 12.6047C45.5484 12.0326 45.1048 11.5248 44.605 11.0639C44.3764 10.7606 43.9644 10.5574 44.062 10.0755C44.5704 9.83764 45.0788 9.59979 45.5879 9.36194C46.5745 9.01722 46.9798 9.9822 47.6025 10.351C49.2267 11.3129 50.6809 12.546 52.2143 13.6556C52.4219 13.8057 52.5961 14.0028 52.4923 14.3018C51.2759 16.9496 50.7038 19.7383 50.6735 22.645Z" fill="#EA5B6A"/>
<path d="M34.06 36.7781C33.6078 37.5497 33.2797 38.3751 32.7379 39.1226C32.3926 39.5995 31.76 40.0573 31.781 40.8017C31.7871 41.0136 31.7717 41.2119 31.5635 41.3837C30.2334 42.4809 29.1807 43.7887 28.4536 45.3715C28.2163 45.888 27.7666 46.3068 27.357 46.8449C28.7328 47.2403 30.1488 46.6238 31.4443 47.1903C29.5007 47.5535 27.5751 47.409 25.6587 46.9858C25.1707 46.6299 25.1379 46.2636 25.4913 45.7453C27.1896 43.2531 28.8249 40.7177 30.5318 38.2299C30.6782 38.0167 30.7944 37.7264 31.0946 37.7746C31.7513 37.8815 30.7758 37.4366 31.199 37.4879C32.0862 36.9801 33.0036 36.5995 34.06 36.7781Z" fill="#F49377"/>
<path d="M31.157 37.6449C31.2565 37.6825 31.3559 37.7196 31.4554 37.7573C29.0819 40.2748 27.6115 43.4304 25.5222 46.1487C25.2238 46.5373 25.4746 46.6485 25.7928 46.7486C25.8824 46.7764 26.0177 46.8159 25.8694 46.9364C25.8193 46.9771 25.7298 46.9703 25.6581 46.9852C24.7203 46.953 23.827 46.7325 22.9707 46.3538C23.3791 44.9397 24.3045 43.8468 25.2034 42.7336C26.1758 41.5301 26.8443 40.1265 27.7141 38.852C28.0699 38.3312 28.4369 38.068 28.9657 38.0384C28.836 37.8135 27.7666 38.5901 28.393 37.4632C29.3278 37.339 30.2656 37.1444 31.157 37.6449Z" fill="#F48F77"/>
<path d="M28.1268 37.7004C28.4956 38.1069 29.0436 37.7381 29.5341 38.047C27.8099 38.2169 27.483 39.7225 26.8288 40.8079C26.0034 42.1769 25.0131 43.4174 24.0512 44.6691C23.6336 45.2121 23.7516 46.0782 22.9713 46.3538C22.1046 46.2142 21.3033 45.8966 20.5453 45.4611C21.8494 43.8647 23.0164 42.1924 24.0753 40.4051C24.758 39.2523 25.6284 38.0285 26.8918 37.2822C27.37 37.2247 27.8074 37.2896 28.1268 37.7004Z" fill="#F18774"/>
<path d="M47.1095 51.6056C46.9124 52.2314 46.4794 52.6978 46.0556 53.1717C44.2183 53.2545 42.4693 53.0259 40.7593 52.2135C40.1526 51.9256 39.3106 51.844 38.542 51.8447C37.8112 51.8453 37.0977 51.6958 36.5281 51.1682C37.0433 50.4287 37.5585 49.6892 38.0737 48.9491C40.0148 49.8455 42.1894 49.7627 44.1855 50.4052C45.1845 50.7271 46.4108 50.5405 47.1095 51.6056Z" fill="#ED7870"/>
<path d="M39.6145 6.97851C40.1143 7.17188 40.5715 7.43505 40.9632 7.80387C41.0262 8.46923 40.7828 9.08763 40.3478 9.50896C38.9275 10.8842 38.3604 12.8184 37.1026 14.2925C36.6306 14.8454 36.2692 15.4959 35.636 15.9031C34.9842 15.8166 34.4128 15.5818 34.0174 15.0227C33.8598 14.0837 34.6278 13.5641 35.0596 12.9439C36.2192 11.2789 37.2039 9.49661 38.4593 7.89778C38.7731 7.49807 39.0418 7.04955 39.6145 6.97851Z" fill="#EC6D6D"/>
<path d="M14.0178 40.9858C15.3596 40.0727 15.9372 38.5511 16.8849 37.3273C17.7924 36.1553 18.7216 34.9692 19.3344 33.5952C19.4703 33.2913 19.8237 33.4772 19.9535 33.232C20.8091 33.29 20.9796 34.0487 21.3534 34.5998C21.3534 34.6356 21.3669 34.69 21.3484 34.706C20.145 35.7186 19.6581 37.2513 18.6518 38.4121C17.9685 39.1998 17.4446 40.1123 16.9386 41.0247C16.6032 41.6289 16.2832 42.2282 15.5029 42.3357C14.9315 41.9706 14.4508 41.5041 14.0178 40.9858Z" fill="#EB656B"/>
<path d="M33.874 54.044C34.4572 53.4417 35.0404 52.8387 35.6236 52.2363C37.3485 52.3865 38.943 53.1006 40.6407 53.3928C41.4629 53.5343 42.2568 53.8395 43.1075 53.9309C43.7105 53.9958 44.3381 54.1632 44.7366 54.7223C44.2961 55.3222 43.7735 55.838 43.1544 56.2538C41.9306 56.3539 40.7753 55.9085 39.6411 55.6193C37.8038 55.1511 35.9375 54.8137 34.1082 54.317C33.9457 54.2732 33.8469 54.2262 33.874 54.044Z" fill="#F28874"/>
<path d="M15.5035 42.3363C16.5556 41.4176 16.9454 40.019 17.8184 39.02C18.729 37.9778 19.2615 36.7546 20.0338 35.6661C20.3099 35.2768 20.9543 35.1138 21.2681 34.6405C21.9903 34.4774 22.1973 35.0273 22.4604 35.5005C21.7833 36.8955 20.9827 38.2163 20.0653 39.4679C19.2041 40.6423 18.2508 41.7618 17.903 43.237C17.8375 43.515 17.6652 43.79 17.2747 43.6621C16.6137 43.313 16.0114 42.888 15.5035 42.3363Z" fill="#EC6F6D"/>
<path d="M26.7992 37.4922C25.76 38.9521 24.4596 40.187 23.5619 41.7951C22.8058 43.1506 22.1417 44.7339 20.5453 45.4617C20.2642 45.3313 19.9831 45.2016 19.702 45.0713C19.3863 44.7661 19.3758 44.4275 19.6304 44.0921C21.2434 41.9656 22.5723 39.6415 24.202 37.5268C24.4812 37.1642 24.8439 36.9313 25.301 36.8541C25.8848 36.867 26.4421 36.9449 26.7992 37.4922Z" fill="#F08072"/>
<path d="M44.062 10.0749C44.28 10.3541 44.4987 10.634 44.7168 10.9132C44.3202 11.7695 43.737 12.5021 43.2224 13.2793C42.4477 14.4488 41.5618 15.5472 40.8612 16.7717C40.3497 17.665 39.7924 18.5373 39.2037 19.3861C38.4457 19.0006 38.0101 18.3612 37.7735 17.5655C39.0783 15.5058 40.4621 13.4962 41.9479 11.565C42.4662 10.891 42.5113 9.98961 43.1557 9.41198C43.4578 9.63315 43.7599 9.85431 44.062 10.0749Z" fill="#EF8071"/>
<path d="M33.874 54.044C35.3648 54.3412 36.8969 54.5092 38.3351 54.9707C39.9253 55.481 41.6439 55.4779 43.1544 56.2532C42.5873 56.8932 41.8923 57.3702 41.1627 57.802C41.0743 57.4622 40.8569 57.1793 40.5171 57.1891C39.4174 57.22 38.4741 56.6708 37.451 56.4274C35.8151 56.0388 34.1916 55.599 32.5625 55.1807C32.9993 54.802 33.4367 54.4233 33.874 54.044Z" fill="#F49076"/>
<path d="M39.6145 6.97851C38.5402 8.26598 37.5196 9.58681 36.6658 11.0405C36.0678 12.0592 35.3833 13.0353 34.6555 13.9663C34.4127 14.277 34.2775 14.6366 34.0322 14.9319C33.2118 15.1852 32.5396 14.9949 32.0497 14.2653C32.5816 14.3246 32.838 13.9428 33.0808 13.5851C33.6473 12.7511 34.1842 11.8973 34.7408 11.0565C35.6613 9.66465 36.5552 8.25362 37.5332 6.90314C37.7772 6.56645 37.8001 6.35331 37.6419 6.03947C38.3993 6.14141 38.9356 6.70977 39.6145 6.97851Z" fill="#EB646B"/>
<path d="M44.7366 54.7223C42.8524 54.107 40.9001 53.7845 38.9708 53.3589C37.9712 53.1383 37.0396 52.6336 35.9782 52.6231C35.859 52.6219 35.7416 52.3717 35.6236 52.2364C35.9251 51.8799 36.2266 51.5241 36.5274 51.1676C37.4554 51.2238 38.3264 51.5259 39.3013 51.5358C40.438 51.5469 41.618 52.1968 42.7591 52.6002C43.5881 52.8931 44.3777 52.8344 45.1758 52.869C45.549 52.885 45.7695 53.0555 46.0543 53.1711C45.6997 53.7598 45.2852 54.2979 44.7366 54.7223Z" fill="#EF8071"/>
<path d="M35.6366 15.7863C37.5839 13.2404 39.2315 10.4943 40.9632 7.8045C41.466 8.01454 41.896 8.33023 42.2747 8.7182C42.4594 9.19822 42.2352 9.58496 41.9646 9.93957C40.2509 12.1852 38.8429 14.657 36.9222 16.7501C36.2439 16.7624 35.7818 16.485 35.6366 15.7863Z" fill="#ED756F"/>
<path d="M25.251 37.0493C23.7905 37.9432 23.0893 39.4896 22.2485 40.8437C21.6406 41.8229 20.8332 42.6384 20.2778 43.6405C20.0245 44.0976 19.4796 44.4251 19.7014 45.0706C19.2208 44.889 18.7451 44.6975 18.362 44.3361C18.2551 43.5385 18.6641 42.9226 19.1015 42.3332C20.2358 40.8061 21.1779 39.1479 22.3152 37.6257C22.6872 37.1278 22.752 36.4544 23.2728 36.0559C24.079 36.0948 24.6962 36.51 25.251 37.0493Z" fill="#EE7A70"/>
<path d="M36.9463 16.7482C37.1199 15.6924 38.0559 15.1395 38.5612 14.303C39.7189 12.3879 41.2869 10.7464 42.2747 8.7182C42.5682 8.94987 42.8622 9.18093 43.1557 9.4126C42.7751 11.5433 41.1825 12.9698 40.0315 14.6329C39.3421 15.63 38.9504 16.886 37.8254 17.5631C37.2694 17.5754 37.0062 17.2721 36.9463 16.7482Z" fill="#EE7A70"/>
<path d="M17.9846 52.0393C17.6757 52.6923 17.2778 53.2316 16.6304 53.6363C16.0546 53.9964 15.5233 54.4956 15.1149 55.0405C14.5521 55.7923 13.7842 56.2446 13.0522 56.7641C12.4671 56.3811 11.9642 55.9122 11.5571 55.3426C13.0262 53.8747 14.3798 52.279 16.1775 51.1756C16.7799 51.4635 17.3822 51.7514 17.9846 52.0393Z" fill="#EB646B"/>
<path d="M47.1095 51.6056C45.5959 50.8117 43.8643 50.7914 42.2883 50.2564C41.0212 49.8264 39.5756 50.2323 38.4352 49.3501C38.2949 49.2413 38.193 49.0838 38.0738 48.9485C38.2968 48.584 38.5192 48.2195 38.7422 47.8544C39.5929 47.598 40.2959 48.1719 41.0694 48.3214C42.8647 48.6686 44.6538 49.0813 46.4361 49.5057C47.01 49.6423 47.579 49.8424 47.7872 50.5022C47.6847 50.9464 47.3789 51.2652 47.1095 51.6056Z" fill="#EC6E6D"/>
<path d="M23.2648 36.1226C23.1975 36.7589 22.8917 37.2871 22.5346 37.8018C21.4485 39.3666 20.3995 40.9574 19.2856 42.5019C18.8729 43.074 18.7037 43.7424 18.3627 44.3355C17.9389 44.2088 17.5849 43.9691 17.2741 43.6602C18.1013 43.2241 17.7473 42.2616 18.2237 41.5771C19.2344 40.1259 20.3766 38.7501 21.2298 37.1889C21.5554 36.5934 21.8853 36.0071 22.3739 35.5271C22.9201 35.3535 23.1907 35.5907 23.2648 36.1226Z" fill="#ED756F"/>
<path d="M16.1775 51.175C16.1374 51.3078 16.138 51.5141 16.0509 51.563C14.305 52.5298 13.3351 54.4184 11.5571 55.342C11.0159 54.9144 10.5909 54.3869 10.2227 53.8086C11.4681 52.3506 12.6277 50.7833 14.6386 50.2847C15.152 50.5819 15.6648 50.8784 16.1775 51.175Z" fill="#EC6D6D"/>
<path d="M14.6393 50.2854C14.3421 50.9316 13.4512 50.6579 13.1492 51.1738C12.54 52.2153 11.2698 52.5316 10.6656 53.559C10.5915 53.6851 10.3741 53.7277 10.2233 53.8086C9.87241 53.4206 9.44675 53.0877 9.30034 52.5496C9.20582 51.8966 9.64568 51.4363 9.98608 51.0137C10.6848 50.1476 11.7635 49.6633 12.4251 48.7384C13.1627 49.2543 13.901 49.7701 14.6393 50.2854Z" fill="#EC746F"/>
<path d="M12.4245 48.7391C12.165 49.6157 11.5522 50.1655 10.7719 50.5869C9.98917 51.0094 9.88847 51.9676 9.2991 52.5496C8.71838 51.8978 8.27728 51.162 7.96529 50.3472C8.23959 49.0603 10.0052 47.5282 11.0931 47.6339C11.5373 48.0027 11.9809 48.3709 12.4245 48.7391Z" fill="#EE7C71"/>
<path d="M11.0938 47.6345C9.65988 48.0873 8.83637 49.2444 7.96591 50.3478C7.3821 49.4415 6.9305 48.4765 6.66794 47.4275C6.81559 46.5348 7.91772 45.5334 8.86232 45.4333C9.60613 46.1666 10.3499 46.9005 11.0938 47.6345Z" fill="#F08673"/>
<path d="M47.7872 50.5035C46.5412 49.431 44.909 49.5162 43.4497 49.1388C41.8744 48.731 40.249 48.5198 38.7422 47.8556C38.8608 47.6301 38.9794 47.404 39.0974 47.1785C39.9345 47.2199 40.7302 47.346 41.5606 47.5826C42.4811 47.8445 43.4337 48.1361 44.4203 48.272C45.7522 48.4561 47.1707 48.592 48.2351 49.6176C48.0856 49.9129 47.9361 50.2082 47.7872 50.5035Z" fill="#EB666B"/>
<path d="M8.86232 45.4333C7.88436 45.8268 7.33577 46.693 6.66794 47.4275C5.75114 45.3233 5.42372 43.1024 5.39098 40.7906C6.44616 42.4253 7.64219 43.9382 8.86232 45.4333Z" fill="#F28F77"/>
<path d="M67.9456 5.37659C67.9042 5.75653 67.5651 5.85414 67.3093 5.99623C65.2953 7.11381 63.272 8.21471 60.9634 9.4787C61.6856 8.09856 62.2768 6.96801 62.8686 5.83685C63.5655 5.24562 64.4211 5.30061 65.2471 5.27404C66.1472 5.245 67.0498 5.24253 67.9456 5.37659Z" fill="#6E6F73"/>
<path d="M47.1052 8.67928C47.4295 8.42537 47.799 8.28204 48.2067 8.23324C49.1655 8.19679 49.8191 8.83373 50.4974 9.34402C51.3308 9.97045 52.0771 10.7062 53.0001 11.2209C53.3411 11.4111 53.6858 11.6453 53.8496 12.0425C53.532 12.5503 53.2139 13.0582 52.8963 13.566C51.2851 12.2631 49.585 11.0763 47.9787 9.76844C47.6161 9.47252 47.2108 9.18957 47.1052 8.67928Z" fill="#EC706E"/>
<path d="M47.1052 8.67928C48.7812 9.89941 50.2312 11.4161 52.0635 12.4354C52.4849 12.6702 52.7054 13.1236 52.8963 13.5654C52.7616 13.8106 52.627 14.0559 52.4929 14.3018C50.2528 12.5689 48.0677 10.7594 45.5885 9.36131C46.0506 9.03759 46.5578 8.81519 47.1052 8.67928Z" fill="#EB666C"/>
<path d="M67.9456 5.3766C66.2794 5.82017 64.5385 5.43406 62.8686 5.83685C62.0717 4.93365 61.2747 4.02982 60.4778 3.12662C60.5099 3.05187 60.5414 2.97712 60.5736 2.90236C63.0311 3.72711 65.4881 4.55185 67.9456 5.3766Z" fill="#929495"/>
<path d="M53.849 12.0419C52.6189 11.3667 51.455 10.6 50.4202 9.64243C49.7697 9.0407 48.9666 8.66756 48.2061 8.23264C48.7646 7.89656 49.3842 7.73408 50.0106 7.59076C51.6706 8.5786 53.3368 9.55903 54.5087 11.1628C54.2888 11.4556 54.0689 11.7491 53.849 12.0419Z" fill="#ED7870"/>
<path d="M56.4313 9.13893C55.9896 9.58188 55.5479 10.0242 55.1061 10.4672C54.0794 9.43918 52.9204 8.58539 51.6638 7.86258C51.3117 7.65995 51.287 7.43137 51.531 7.1373C52.0876 6.85374 52.6838 6.73018 53.3034 6.69867C53.4295 6.61651 53.6352 6.54361 53.7069 6.61836C54.5625 7.51601 55.8926 7.90212 56.4313 9.13893Z" fill="#F18774"/>
<path d="M51.5304 7.13667C52.0635 8.12081 53.1644 8.41178 53.9657 9.06911C54.471 9.48426 54.8417 9.90498 55.1055 10.4665C54.9066 10.6982 54.707 10.9305 54.5081 11.1622C53.1237 10.1397 51.9004 8.89613 50.3473 8.10783C50.1008 7.98242 50.2219 7.69392 50.0106 7.59075C50.4795 7.31212 50.9948 7.1898 51.5304 7.13667Z" fill="#EF7F72"/>
<path d="M56.4313 9.13891C55.5454 8.32467 54.358 7.85206 53.7223 6.74623C53.6809 6.67394 53.4474 6.71163 53.3028 6.69865C54.1504 6.3737 55.032 6.24335 55.9364 6.24829C56.3738 6.20319 56.3689 6.20443 56.4931 6.66838C56.4986 6.68815 56.7408 6.68568 56.8415 6.7765C57.2758 7.16694 57.6903 7.56974 57.5297 8.24065C57.164 8.54028 56.7976 8.83929 56.4313 9.13891Z" fill="#F38F77"/>
<path d="M57.5303 8.24068C57.4939 7.45733 56.3324 7.21515 56.5925 6.28971C56.3745 6.2755 56.1558 6.26191 55.9371 6.2477C57.5884 5.91348 59.2533 5.8344 60.9869 6.03394C59.7945 6.73513 58.6646 7.49192 57.5303 8.24068Z" fill="#F3997A"/>
<path d="M50.6618 38.7772C50.3344 38.4375 50.4721 38.0112 50.4696 37.6232C50.4542 35.1286 50.4561 32.634 50.4523 30.1387C50.4876 29.9361 50.3788 29.7063 50.731 29.3721C50.731 32.1743 50.731 34.8166 50.731 37.4583C50.7081 37.8981 50.6853 38.338 50.6618 38.7772Z" fill="#E45462"/>
<path d="M23.2648 36.1226C22.9683 35.9243 22.6711 35.726 22.3746 35.5283C22.0057 35.2324 21.6369 34.9365 21.2681 34.6399C20.8301 34.1704 20.3921 33.7015 19.9535 33.232C17.4261 29.6624 16.6866 25.7988 18.2311 21.6522C20.2123 16.3331 25.6692 13.2583 31.2837 14.1918C31.5357 14.2338 31.794 14.2412 32.0491 14.2647C32.7101 14.4871 33.3712 14.7089 34.0316 14.9313C34.5666 15.2161 35.101 15.5009 35.636 15.7851C36.0727 16.1057 36.5095 16.4263 36.9457 16.7476C37.2385 17.0194 37.532 17.2906 37.8248 17.5625C38.2894 18.1444 38.7539 18.7258 39.2185 19.3077C40.0396 19.7321 40.1854 20.6063 40.5653 21.326C40.8513 22.0896 41.0354 22.8835 41.2523 23.668C41.5575 24.8622 41.6112 26.0478 41.1411 27.216C40.598 30.0906 39.4551 32.6426 37.2404 34.648C36.2791 35.5184 35.1498 36.1134 34.0594 36.7775C33.0919 37.0666 32.1245 37.3557 31.1564 37.6442C30.1457 37.6628 29.1356 37.6813 28.1255 37.6998C27.6832 37.6306 27.2402 37.5608 26.7979 37.4916C26.2821 37.344 25.7656 37.1963 25.2497 37.0487C24.4732 36.9888 23.9987 36.2783 23.2648 36.1226Z" fill="#F7F8F7"/>
<path d="M41.1423 27.2166C41.2059 25.9786 41.1151 24.7473 40.9669 23.5192C41.6155 23.0286 41.5995 22.1508 42.1178 21.5731C43.8507 19.6401 45.1567 17.3895 46.7172 15.3273C46.9538 15.0141 47.0434 14.5643 47.5834 14.6786C48.0442 15.2896 48.565 15.8672 48.683 16.6679C48.5385 16.6426 48.3939 16.6179 48.2493 16.5925C48.2722 17.7354 46.8247 18.1104 46.8525 19.2632C46.8556 19.3886 46.7716 19.5758 46.6703 19.6339C44.9757 20.6131 44.9015 22.6833 43.7203 24.0183C43.3608 24.4242 43.0025 24.8449 42.6479 25.2632C42.035 25.9866 41.1812 26.5828 41.2146 27.7244C41.1905 27.5552 41.1664 27.3859 41.1423 27.2166Z" fill="#F49477"/>
<path d="M47.5834 14.678C46.8754 15.0901 46.6523 15.8913 46.194 16.4949C44.8601 18.2501 43.7716 20.18 42.2759 21.8338C41.8151 22.3435 41.5247 23.0459 40.9669 23.5192C40.7438 22.7828 40.5214 22.0464 40.2984 21.3093C40.2564 19.8995 41.3826 19.0736 41.9918 17.9986C43.1038 16.0365 44.7502 14.434 45.8523 12.4565C45.8826 12.4021 45.974 12.4169 46.0482 12.4571C46.6653 13.1243 47.2967 13.7822 47.5834 14.678Z" fill="#F48F76"/>
<path d="M46.0482 12.4571C45.536 13.7773 44.6767 14.9195 43.7803 15.9457C42.8289 17.0348 42.2852 18.3476 41.3987 19.4498C40.9459 20.0132 40.5678 20.6322 40.2984 21.3099C39.9389 20.6427 39.5793 19.9761 39.2198 19.3089C39.2327 18.0622 40.2564 17.324 40.7945 16.359C41.7774 14.5952 43.0519 12.9933 44.2177 11.3333C44.3387 11.1616 44.5488 11.0522 44.7174 10.9138C45.3074 11.3012 45.7572 11.8108 46.0482 12.4571Z" fill="#F28774"/>
<path d="M82.9171 30.7874L83.4131 31.8896L80.033 33.9654C79.4329 34.1246 78.8574 34.2287 78.3063 34.2776C77.7552 34.3389 77.1612 34.3695 76.5244 34.3695C75.0548 34.3695 73.7505 34.0572 72.6116 33.4326C71.4726 32.8081 70.5909 31.9508 69.9663 30.8608C69.3417 29.7586 69.0294 28.5095 69.0294 27.1134C69.0294 25.6805 69.4948 24.3579 70.4256 23.1455C71.3563 21.9208 72.5136 20.9594 73.8975 20.2614C75.2936 19.5511 76.6162 19.1959 77.8654 19.1959C78.6247 19.1959 79.5187 19.2878 80.5474 19.4715C81.5761 19.6552 82.3293 19.8511 82.8069 20.0593V24.4314H81.0801C80.0024 22.3494 78.5757 21.3085 76.7999 21.3085C76.0284 21.3085 75.3242 21.5228 74.6874 21.9514C74.0628 22.3801 73.5668 22.9679 73.1994 23.7149C72.832 24.462 72.6483 25.3009 72.6483 26.2316C72.6483 27.3216 72.8259 28.3258 73.181 29.2443C73.5484 30.1505 74.0995 30.8792 74.8343 31.4303C75.5691 31.9692 76.4754 32.2386 77.5531 32.2386C77.6021 32.2386 77.8286 32.2386 78.2328 32.2386C78.6369 32.2386 79.0839 32.2018 79.5738 32.1284V28.4544L76.6162 27.738L77.2224 26.5439H84.6439V27.5726L82.9171 29.0422V30.7874ZM92.2932 23.917C93.1995 23.917 94.0078 24.1313 94.7181 24.56C95.4284 24.9763 95.9795 25.5519 96.3714 26.2867C96.7755 27.0215 96.9776 27.8359 96.9776 28.7299C96.9776 29.6974 96.6653 30.6037 96.0407 31.4487C95.4161 32.2814 94.6323 32.9489 93.6894 33.451C92.7586 33.9409 91.8585 34.1858 90.989 34.1858C90.095 34.1858 89.2867 33.9776 88.5641 33.5612C87.8538 33.1326 87.2966 32.5509 86.8925 31.8161C86.5006 31.0813 86.3046 30.2669 86.3046 29.3729C86.3046 28.4054 86.6169 27.5053 87.2415 26.6725C87.8661 25.8275 88.6437 25.16 89.5745 24.6702C90.5175 24.1681 91.4237 23.917 92.2932 23.917ZM91.2278 26.0479C90.7134 26.0479 90.3215 26.2561 90.0521 26.6725C89.7949 27.0766 89.6663 27.6828 89.6663 28.4911C89.6663 29.5198 89.8745 30.3771 90.2909 31.0629C90.7073 31.7365 91.2951 32.0733 92.0544 32.0733C92.5565 32.0733 92.9362 31.8651 93.1934 31.4487C93.4628 31.02 93.5975 30.4016 93.5975 29.5933C93.5975 28.5646 93.3893 27.7196 92.9729 27.0583C92.5565 26.3847 91.9748 26.0479 91.2278 26.0479ZM104.15 34.0021H98.3448V32.9734L99.9798 31.5956V21.5473L98.3448 20.4635V19.4347L101.945 17.9652H103.103V32.257L104.756 32.8081L104.15 34.0021ZM117.628 34.0021H113.458V32.6427L111.694 34.0388C111.302 34.1368 110.849 34.1858 110.335 34.1858C109.527 34.1858 108.798 33.9776 108.149 33.5612C107.512 33.1326 107.01 32.5509 106.642 31.8161C106.287 31.0813 106.11 30.2669 106.11 29.3729C106.11 28.4054 106.422 27.5053 107.047 26.6725C107.671 25.8275 108.449 25.16 109.38 24.6702C110.323 24.1681 111.229 23.917 112.098 23.917C112.588 23.917 113.041 24.0395 113.458 24.2844V21.5473L111.823 20.4635V19.4347L115.423 17.9652H116.581V32.257L118.234 32.8081L117.628 34.0021ZM111.455 31.7242C112.178 31.7242 112.845 31.5467 113.458 31.1915V27.6828C113.384 27.2052 113.139 26.8133 112.723 26.5072C112.307 26.201 111.743 26.0479 111.033 26.0479C109.955 26.0479 109.416 26.8684 109.416 28.5095C109.416 29.4402 109.588 30.2118 109.931 30.8241C110.286 31.4242 110.794 31.7242 111.455 31.7242ZM125.517 23.917C126.803 23.917 127.795 24.4069 128.493 25.3866C129.203 26.3663 129.546 27.7257 129.522 29.4647H122.908C123.031 30.2118 123.294 30.8119 123.698 31.265C124.102 31.7059 124.629 31.9263 125.278 31.9263C126.135 31.9263 127.366 31.4977 128.971 30.6404L129.522 31.6875L126.729 33.9102C126.007 34.0939 125.168 34.1858 124.213 34.1858C123.319 34.1858 122.51 33.9776 121.788 33.5612C121.078 33.1326 120.52 32.5509 120.116 31.8161C119.724 31.0813 119.528 30.2669 119.528 29.3729C119.528 28.4054 119.841 27.5053 120.465 26.6725C121.09 25.8275 121.867 25.16 122.798 24.6702C123.741 24.1681 124.647 23.917 125.517 23.917ZM124.507 26.0479C123.968 26.0479 123.564 26.2316 123.294 26.599C123.025 26.9542 122.878 27.5053 122.853 28.2523H126.362C126.264 27.493 126.08 26.9358 125.811 26.5806C125.554 26.2255 125.113 26.0479 124.488 26.0479H124.507ZM143.448 34.0021H139.278V28.1237C139.278 27.5481 139.187 27.144 139.003 26.9113C138.831 26.6664 138.525 26.5439 138.084 26.5439C137.435 26.5439 136.792 26.7521 136.156 27.1685V32.257L137.809 32.8081L137.203 34.0021H131.398V32.9734L133.033 31.5956V27.4257L131.398 26.3969V25.3682L135.219 23.7517L135.935 25.8826L138.213 24.064C138.544 23.966 138.917 23.917 139.334 23.917C140.264 23.917 141.005 24.1742 141.556 24.6885C142.12 25.1907 142.401 25.8765 142.401 26.746V32.257L144.055 32.8081L143.448 34.0021ZM169.156 34.0756H162.653V33.0469L164.38 31.6875V22.8699L159.824 34.0572H158.226L153.597 22.7781V32.0365L155.636 32.8448L155.048 34.0388H150.29V33.0101L152.017 31.6507V21.6391L149.978 20.7757L150.584 19.5817H155.746L159.934 29.7954L164.086 19.5817H169.45V20.6104L167.705 21.9698V32.2753L169.744 32.8815L169.156 34.0756ZM181.715 34.0021H177.527V32.4039L175.451 34.0388C175.206 34.1368 174.9 34.1858 174.532 34.1858C173.357 34.1858 172.506 33.898 171.979 33.3224C171.465 32.7468 171.207 32.0549 171.207 31.2466C171.207 30.769 171.354 30.3036 171.648 29.8505C171.942 29.3851 172.365 28.9565 172.916 28.5646H177.527V28.2523C177.527 27.5787 177.343 27.0828 176.976 26.7643C176.608 26.4459 176.118 26.2867 175.506 26.2867C174.649 26.2867 173.528 26.6235 172.144 27.2971L171.593 26.25L174.147 24.1926C174.771 24.0089 175.5 23.917 176.333 23.917C177.704 23.917 178.764 24.2293 179.511 24.8539C180.27 25.4785 180.65 26.3847 180.65 27.5726V32.1651L182.303 32.8081L181.715 34.0021ZM175.469 31.7242C176.094 31.7242 176.78 31.467 177.527 30.9527V29.777H174.569C174.471 29.924 174.398 30.0648 174.349 30.1995C174.312 30.322 174.294 30.4628 174.294 30.622C174.294 30.9282 174.398 31.1854 174.606 31.3936C174.826 31.6018 175.114 31.7059 175.469 31.7059V31.7242ZM188.66 31.6691C188.66 31.4364 188.5 31.2037 188.182 30.9711C187.864 30.7261 187.374 30.42 186.712 30.0526C186.063 29.6852 185.543 29.3729 185.151 29.1157C184.759 28.8463 184.416 28.5462 184.122 28.2156C183.841 27.8727 183.7 27.5053 183.7 27.1134C183.7 26.6725 183.908 26.201 184.324 25.6989C184.753 25.1968 185.273 24.7743 185.886 24.4314C186.498 24.0885 187.061 23.917 187.576 23.917C188.2 23.917 188.929 23.9905 189.762 24.1374C190.607 24.2722 191.219 24.4252 191.599 24.5967V27.6645H190.441C190.111 27.0521 189.713 26.5745 189.247 26.2316C188.794 25.8887 188.323 25.7173 187.833 25.7173C187.588 25.7173 187.392 25.7907 187.245 25.9377C187.098 26.0724 187.025 26.2377 187.025 26.4337C187.025 26.6909 187.184 26.9419 187.502 27.1869C187.833 27.4318 188.353 27.7563 189.064 28.1605C190.007 28.6748 190.729 29.1402 191.231 29.5566C191.746 29.973 192.003 30.4506 192.003 30.9894C192.003 31.4426 191.782 31.9202 191.342 32.4223C190.913 32.9121 190.38 33.3285 189.743 33.6714C189.119 34.0143 188.543 34.1858 188.017 34.1858C187.343 34.1858 186.541 34.1184 185.61 33.9837C184.692 33.8368 184.036 33.6776 183.645 33.5061V30.3281H184.802C185.169 30.9772 185.622 31.4854 186.161 31.8528C186.7 32.208 187.233 32.3855 187.759 32.3855C188.029 32.3855 188.243 32.3182 188.402 32.1835C188.574 32.0365 188.66 31.8651 188.66 31.6691ZM199.637 32.8081L199.031 34.0021H193.226V32.9734L194.861 31.5956V21.5473L193.226 20.4635V19.4347L196.827 17.9652H197.984V32.257L199.637 32.8081ZM205.497 33.9837H201.695L198.7 29.0606L201.934 26.4888L199.692 25.2764L200.28 24.0823H205.589V25.1111L201.787 28.2339L204.267 32.0916L206.085 32.7897L205.497 33.9837Z" fill="#F49878"/>
<path d="M68.4739 45.6297V44.8631H73.8266V45.6297H71.5824V51.9999H70.7181V45.6297H68.4739ZM74.493 51.9999V46.6473H75.2876V47.4557H75.3433C75.4409 47.1909 75.6175 46.976 75.873 46.8111C76.1286 46.6461 76.4166 46.5636 76.7372 46.5636C76.7976 46.5636 76.8731 46.5648 76.9637 46.5671C77.0543 46.5694 77.1229 46.5729 77.1693 46.5776V47.4139C77.1415 47.407 77.0776 47.3965 76.9777 47.3826C76.8801 47.3663 76.7767 47.3582 76.6675 47.3582C76.4073 47.3582 76.175 47.4128 75.9706 47.522C75.7685 47.6288 75.6082 47.7775 75.4897 47.968C75.3735 48.1562 75.3154 48.3711 75.3154 48.6127V51.9999H74.493ZM79.7193 52.1254C79.3801 52.1254 79.0723 52.0615 78.7959 51.9337C78.5194 51.8036 78.2999 51.6166 78.1372 51.3726C77.9746 51.1264 77.8933 50.829 77.8933 50.4805C77.8933 50.1739 77.9537 49.9253 78.0745 49.7348C78.1953 49.542 78.3568 49.391 78.5589 49.2818C78.761 49.1726 78.984 49.0913 79.228 49.0378C79.4742 48.9821 79.7217 48.9379 79.9702 48.9054C80.2955 48.8636 80.5592 48.8322 80.7613 48.8113C80.9657 48.7881 81.1144 48.7498 81.2073 48.6963C81.3026 48.6429 81.3502 48.55 81.3502 48.4175V48.3897C81.3502 48.0458 81.2561 47.7787 81.0679 47.5882C80.8821 47.3977 80.5998 47.3024 80.2211 47.3024C79.8285 47.3024 79.5207 47.3884 79.2977 47.5603C79.0746 47.7322 78.9178 47.9157 78.8272 48.1109L78.0466 47.8321C78.186 47.5069 78.3719 47.2536 78.6042 47.0724C78.8388 46.8889 79.0944 46.7611 79.3709 46.6891C79.6496 46.6147 79.9238 46.5776 80.1933 46.5776C80.3652 46.5776 80.5627 46.5985 80.7857 46.6403C81.011 46.6798 81.2282 46.7623 81.4373 46.8877C81.6487 47.0132 81.8241 47.2025 81.9635 47.4557C82.1029 47.709 82.1726 48.0482 82.1726 48.4733V51.9999H81.3502V51.2751H81.3084C81.2526 51.3912 81.1597 51.5155 81.0296 51.6479C80.8995 51.7804 80.7264 51.893 80.5104 51.986C80.2943 52.0789 80.0306 52.1254 79.7193 52.1254ZM79.8448 51.3866C80.17 51.3866 80.4442 51.3227 80.6672 51.1949C80.8925 51.0671 81.0621 50.9022 81.176 50.7001C81.2921 50.498 81.3502 50.2854 81.3502 50.0624V49.3096C81.3154 49.3515 81.2387 49.3898 81.1202 49.4246C81.0041 49.4572 80.8693 49.4862 80.716 49.5118C80.565 49.535 80.4175 49.5559 80.2734 49.5745C80.1317 49.5908 80.0167 49.6047 79.9284 49.6163C79.7147 49.6442 79.5149 49.6895 79.329 49.7522C79.1455 49.8126 78.9968 49.9044 78.883 50.0275C78.7715 50.1483 78.7157 50.3133 78.7157 50.5224C78.7157 50.8081 78.8214 51.0242 79.0328 51.1705C79.2466 51.3146 79.5172 51.3866 79.8448 51.3866ZM87.8589 46.6473L85.8796 51.9999H85.0432L83.0639 46.6473H83.956L85.4335 50.9126H85.4893L86.9668 46.6473H87.8589ZM90.997 52.1114C90.4812 52.1114 90.0363 51.9976 89.6623 51.7699C89.2906 51.5399 89.0037 51.2193 88.8016 50.8081C88.6018 50.3946 88.5019 49.9137 88.5019 49.3654C88.5019 48.8171 88.6018 48.3339 88.8016 47.9157C89.0037 47.4952 89.2848 47.1677 89.6449 46.933C90.0073 46.6961 90.4301 46.5776 90.9133 46.5776C91.1921 46.5776 91.4674 46.624 91.7392 46.717C92.011 46.8099 92.2585 46.9609 92.4815 47.17C92.7045 47.3768 92.8822 47.6509 93.0147 47.9924C93.1471 48.3339 93.2133 48.7544 93.2133 49.2539V49.6024H89.0873V48.8915H92.3769C92.3769 48.5895 92.3165 48.32 92.1957 48.083C92.0773 47.846 91.9077 47.659 91.687 47.522C91.4686 47.3849 91.2107 47.3163 90.9133 47.3163C90.5858 47.3163 90.3023 47.3977 90.063 47.5603C89.8261 47.7206 89.6437 47.9297 89.5159 48.1875C89.3882 48.4454 89.3243 48.7219 89.3243 49.0169V49.4909C89.3243 49.8951 89.394 50.2378 89.5334 50.5189C89.6751 50.7976 89.8714 51.0102 90.1223 51.1566C90.3732 51.3006 90.6648 51.3726 90.997 51.3726C91.213 51.3726 91.4082 51.3424 91.5824 51.282C91.759 51.2193 91.9111 51.1264 92.0389 51.0033C92.1667 50.8778 92.2654 50.7221 92.3351 50.5363L93.1297 50.7593C93.046 51.0288 92.9055 51.2658 92.708 51.4702C92.5105 51.6723 92.2666 51.8303 91.9762 51.9441C91.6858 52.0557 91.3594 52.1114 90.997 52.1114ZM95.2867 44.8631V51.9999H94.4643V44.8631H95.2867ZM100.766 51.9999L99.1348 46.6473H99.999L101.156 50.7454H101.212L102.355 46.6473H103.233L104.362 50.7314H104.418L105.575 46.6473H106.439L104.808 51.9999H104L102.829 47.8879H102.745L101.574 51.9999H100.766ZM107.526 51.9999V46.6473H108.349V51.9999H107.526ZM107.944 45.7552C107.784 45.7552 107.646 45.7006 107.53 45.5914C107.416 45.4822 107.359 45.3509 107.359 45.1976C107.359 45.0443 107.416 44.913 107.53 44.8038C107.646 44.6946 107.784 44.64 107.944 44.64C108.105 44.64 108.242 44.6946 108.356 44.8038C108.472 44.913 108.53 45.0443 108.53 45.1976C108.53 45.3509 108.472 45.4822 108.356 45.5914C108.242 45.7006 108.105 45.7552 107.944 45.7552ZM112.183 46.6473V47.3442H109.409V46.6473H112.183ZM110.217 45.3649H111.04V50.4666C111.04 50.6989 111.073 50.8732 111.141 50.9893C111.21 51.1031 111.299 51.1798 111.406 51.2193C111.515 51.2565 111.63 51.2751 111.751 51.2751C111.841 51.2751 111.916 51.2704 111.974 51.2611C112.032 51.2495 112.078 51.2402 112.113 51.2332L112.28 51.972C112.225 51.9929 112.147 52.0138 112.047 52.0347C111.947 52.058 111.82 52.0696 111.667 52.0696C111.435 52.0696 111.207 52.0196 110.984 51.9198C110.763 51.8199 110.58 51.6677 110.433 51.4632C110.289 51.2588 110.217 51.0009 110.217 50.6896V45.3649ZM114.357 48.78V51.9999H113.535V44.8631H114.357V47.4836H114.427C114.552 47.2072 114.741 46.9876 114.991 46.825C115.245 46.66 115.582 46.5776 116.002 46.5776C116.367 46.5776 116.686 46.6508 116.96 46.7971C117.234 46.9412 117.447 47.163 117.598 47.4627C117.751 47.7601 117.828 48.1388 117.828 48.5988V51.9999H117.006V48.6545C117.006 48.2294 116.895 47.9006 116.675 47.6683C116.456 47.4337 116.153 47.3163 115.765 47.3163C115.496 47.3163 115.254 47.3733 115.04 47.4871C114.829 47.6009 114.662 47.767 114.538 47.9854C114.418 48.2038 114.357 48.4687 114.357 48.78ZM125.466 49.8115V46.6473H126.288V51.9999H125.466V51.0939H125.41C125.285 51.3657 125.089 51.5968 124.825 51.7873C124.56 51.9755 124.225 52.0696 123.821 52.0696C123.486 52.0696 123.189 51.9964 122.929 51.8501C122.669 51.7014 122.464 51.4783 122.316 51.181C122.167 50.8813 122.093 50.5038 122.093 50.0484V46.6473H122.915V49.9927C122.915 50.383 123.024 50.6943 123.243 50.9266C123.463 51.1589 123.744 51.2751 124.086 51.2751C124.29 51.2751 124.498 51.2228 124.71 51.1183C124.923 51.0137 125.102 50.8534 125.246 50.6373C125.393 50.4213 125.466 50.146 125.466 49.8115ZM131.586 47.846L130.847 48.0551C130.801 47.932 130.732 47.8124 130.642 47.6962C130.553 47.5777 130.433 47.4801 130.279 47.4035C130.126 47.3268 129.93 47.2885 129.69 47.2885C129.363 47.2885 129.09 47.364 128.871 47.515C128.655 47.6637 128.547 47.853 128.547 48.083C128.547 48.2874 128.622 48.4489 128.77 48.5674C128.919 48.6859 129.151 48.7846 129.467 48.8636L130.262 49.0587C130.74 49.1749 131.097 49.3526 131.332 49.5919C131.566 49.8289 131.684 50.1344 131.684 50.5084C131.684 50.8151 131.595 51.0892 131.419 51.3308C131.244 51.5724 131.001 51.7629 130.687 51.9023C130.373 52.0417 130.009 52.1114 129.593 52.1114C129.047 52.1114 128.595 51.9929 128.237 51.756C127.879 51.519 127.653 51.1728 127.558 50.7175L128.338 50.5224C128.413 50.8104 128.553 51.0265 128.76 51.1705C128.969 51.3146 129.242 51.3866 129.579 51.3866C129.962 51.3866 130.266 51.3053 130.492 51.1426C130.719 50.9777 130.833 50.7802 130.833 50.5502C130.833 50.3644 130.768 50.2087 130.638 50.0833C130.508 49.9555 130.308 49.8602 130.039 49.7975L129.147 49.5884C128.656 49.4723 128.296 49.2922 128.066 49.0483C127.839 48.802 127.725 48.4942 127.725 48.1248C127.725 47.8228 127.81 47.5556 127.979 47.3233C128.151 47.091 128.385 46.9086 128.68 46.7762C128.977 46.6438 129.314 46.5776 129.69 46.5776C130.22 46.5776 130.636 46.6937 130.938 46.9261C131.242 47.1584 131.458 47.465 131.586 47.846Z" fill="white"/>
</g>
<defs>
<clipPath id="clip0_350_1627">
<rect width="210" height="66" fill="white"/>
</clipPath>
</defs>
</svg>
